<?xml version="1.0" encoding="UTF-8" standalone="no"?>
<!-- Generator: Adobe Illustrator 18.1.1, SVG Export Plug-In . SVG Version: 6.00 Build 0)  -->

<svg
   version="1.1"
   id="Capa_1"
   x="0px"
   y="0px"
   viewBox="0 0 309.059 309.059"
   style="enable-background:new 0 0 309.059 309.059;"
   xml:space="preserve"
   xmlns="http://www.w3.org/2000/svg"
   xmlns:svg="http://www.w3.org/2000/svg"><defs
   id="defs41" />
<g
   id="g6"
   style="fill:#ffffff;stroke:none">
	<g
   id="g4"
   style="fill:#ffffff;stroke:none">
		<path
   style="fill:#ffffff;stroke:none"
   d="M280.71,126.181h-97.822V28.338C182.889,12.711,170.172,0,154.529,0S126.17,12.711,126.17,28.338    v97.843H28.359C12.722,126.181,0,138.903,0,154.529c0,15.621,12.717,28.338,28.359,28.338h97.811v97.843    c0,15.632,12.711,28.348,28.359,28.348c15.643,0,28.359-12.717,28.359-28.348v-97.843h97.822    c15.632,0,28.348-12.717,28.348-28.338C309.059,138.903,296.342,126.181,280.71,126.181z"
   id="path2" />
	</g>
</g>
<g
   id="g8">
</g>
<g
   id="g10">
</g>
<g
   id="g12">
</g>
<g
   id="g14">
</g>
<g
   id="g16">
</g>
<g
   id="g18">
</g>
<g
   id="g20">
</g>
<g
   id="g22">
</g>
<g
   id="g24">
</g>
<g
   id="g26">
</g>
<g
   id="g28">
</g>
<g
   id="g30">
</g>
<g
   id="g32">
</g>
<g
   id="g34">
</g>
<g
   id="g36">
</g>
<path
   style="fill:#ffffff;fill-opacity:0;stroke:none;stroke-width:0.762124"
   d="m 149.17543,308.34721 c -5.82157,-1.22816 -10.15305,-3.63458 -14.60146,-8.11207 -2.80211,-2.82041 -3.61588,-3.92572 -5.05731,-6.86911 -3.29398,-6.72629 -3.0097,-1.35147 -3.13938,-59.35631 L 126.26234,182.5922 H 75.666115 c -57.201234,0 -53.05723,0.20912 -59.747878,-3.01504 -3.309472,-1.5948 -4.27813,-2.28815 -7.0521676,-5.04785 -3.6160404,-3.59735 -5.7109795,-6.85937 -7.2715762,-11.32253 -0.95954432,-2.74421 -1.03288963,-3.36038 -1.03288963,-8.67728 0,-5.31691 0.0733453,-5.93308 1.03288963,-8.67729 2.4129518,-6.90082 7.592899,-12.97671 13.7790408,-16.16233 6.681858,-3.44089 2.505708,-3.21755 60.219692,-3.2205 l 50.669114,-0.003 0.11494,-51.417519 c 0.12966,-57.997315 -0.15422,-52.621883 3.13463,-59.356312 1.46322,-2.99617 2.22783,-4.024256 5.24193,-7.0482445 3.02174,-3.0316612 4.03289,-3.7877033 7.03666,-5.2613664 4.91901,-2.41328109 7.39503,-2.9955055 12.739,-2.9955055 5.34396,0 7.81999,0.58222441 12.73899,2.9955055 3.00377,1.4736631 4.01492,2.2297052 7.03666,5.2613664 3.00335,3.0132085 3.78539,4.0627565 5.25177,7.0482445 3.2534,6.62378 2.99639,1.725681 3.12417,59.540935 l 0.11324,51.232896 50.67027,0.003 c 49.4014,0.003 50.74746,0.0211 53.7524,0.74146 9.33609,2.23815 16.96921,9.26577 20.2475,18.64137 0.95954,2.74421 1.03289,3.36038 1.03289,8.67728 0,5.31691 -0.0734,5.93308 -1.03289,8.67729 -1.5606,4.46316 -3.65554,7.72518 -7.27158,11.32253 -2.77404,2.7597 -3.74269,3.45305 -7.05217,5.04785 -6.69071,3.22419 -2.54542,3.01504 -59.75779,3.01504 h -50.60614 v 49.79986 c 0,54.26169 0.0337,53.31475 -2.08548,58.60838 -2.46749,6.16366 -7.72258,11.8762 -13.55829,14.7385 -1.85482,0.90975 -4.36937,1.91647 -5.58788,2.23716 -3.07634,0.80961 -9.39295,0.99912 -12.36974,0.37111 z"
   id="path909" /></svg>
